<mxfile host="app.diagrams.net" modified="2023-10-11T14:50:02.411Z" agent="Mozilla/5.0 (X11; Linux x86_64; rv:109.0) Gecko/20100101 Firefox/118.0" etag="oz6w2-nTwvfTz6MWZAes" version="22.0.4" type="device">
  <diagram name="Page-1" id="b520641d-4fe3-3701-9064-5fc419738815">
    <mxGraphModel dx="1274" dy="706" grid="1" gridSize="10" guides="1" tooltips="1" connect="1" arrows="1" fold="1" page="1" pageScale="1" pageWidth="1100" pageHeight="850" background="none" math="0" shadow="0">
      <root>
        <mxCell id="0" />
        <mxCell id="1" parent="0" />
        <mxCell id="Cp1m9hOyoxUrhOeK2Ubn-2" value="Utenti" style="swimlane;fontStyle=0;childLayout=stackLayout;horizontal=1;startSize=30;horizontalStack=0;resizeParent=1;resizeParentMax=0;resizeLast=0;collapsible=1;marginBottom=0;whiteSpace=wrap;html=1;" parent="1" vertex="1">
          <mxGeometry x="40" y="120" width="200" height="240" as="geometry" />
        </mxCell>
        <mxCell id="Cp1m9hOyoxUrhOeK2Ubn-4" value="id&lt;span style=&quot;white-space: pre;&quot;&gt;&#x9;&lt;span style=&quot;white-space: pre;&quot;&gt;&#x9;&lt;/span&gt;&lt;span style=&quot;white-space: pre;&quot;&gt;&#x9;&lt;span style=&quot;white-space: pre;&quot;&gt;&#x9;&lt;/span&gt;&lt;/span&gt;&lt;/span&gt;pk" style="text;strokeColor=none;fillColor=none;align=left;verticalAlign=middle;spacingLeft=4;spacingRight=4;overflow=hidden;points=[[0,0.5],[1,0.5]];portConstraint=eastwest;rotatable=0;whiteSpace=wrap;html=1;" parent="Cp1m9hOyoxUrhOeK2Ubn-2" vertex="1">
          <mxGeometry y="30" width="200" height="30" as="geometry" />
        </mxCell>
        <mxCell id="Cp1m9hOyoxUrhOeK2Ubn-5" value="nominativo&amp;nbsp;&#x9;&lt;span style=&quot;white-space: pre;&quot;&gt;&#x9;&lt;span style=&quot;white-space: pre;&quot;&gt;&#x9;&lt;/span&gt;&lt;/span&gt;varchar" style="text;strokeColor=none;fillColor=none;align=left;verticalAlign=middle;spacingLeft=4;spacingRight=4;overflow=hidden;points=[[0,0.5],[1,0.5]];portConstraint=eastwest;rotatable=0;whiteSpace=wrap;html=1;" parent="Cp1m9hOyoxUrhOeK2Ubn-2" vertex="1">
          <mxGeometry y="60" width="200" height="30" as="geometry" />
        </mxCell>
        <mxCell id="Cp1m9hOyoxUrhOeK2Ubn-6" value="email&lt;span style=&quot;white-space: pre;&quot;&gt;&#x9;&lt;span style=&quot;white-space: pre;&quot;&gt;&#x9;&lt;span style=&quot;white-space: pre;&quot;&gt;&#x9;&lt;/span&gt;&lt;/span&gt;&lt;/span&gt;varchar" style="text;strokeColor=none;fillColor=none;align=left;verticalAlign=middle;spacingLeft=4;spacingRight=4;overflow=hidden;points=[[0,0.5],[1,0.5]];portConstraint=eastwest;rotatable=0;whiteSpace=wrap;html=1;" parent="Cp1m9hOyoxUrhOeK2Ubn-2" vertex="1">
          <mxGeometry y="90" width="200" height="30" as="geometry" />
        </mxCell>
        <mxCell id="Cp1m9hOyoxUrhOeK2Ubn-7" value="numero&lt;span style=&quot;white-space: pre;&quot;&gt;&#x9;&lt;span style=&quot;white-space: pre;&quot;&gt;&#x9;&lt;span style=&quot;white-space: pre;&quot;&gt;&#x9;&lt;/span&gt;&lt;/span&gt;&lt;/span&gt;int" style="text;strokeColor=none;fillColor=none;align=left;verticalAlign=middle;spacingLeft=4;spacingRight=4;overflow=hidden;points=[[0,0.5],[1,0.5]];portConstraint=eastwest;rotatable=0;whiteSpace=wrap;html=1;" parent="Cp1m9hOyoxUrhOeK2Ubn-2" vertex="1">
          <mxGeometry y="120" width="200" height="30" as="geometry" />
        </mxCell>
        <mxCell id="Cp1m9hOyoxUrhOeK2Ubn-8" value="residenza&lt;span style=&quot;white-space: pre;&quot;&gt;&#x9;&lt;span style=&quot;white-space: pre;&quot;&gt;&#x9;&lt;/span&gt;&lt;/span&gt;varchar" style="text;strokeColor=none;fillColor=none;align=left;verticalAlign=middle;spacingLeft=4;spacingRight=4;overflow=hidden;points=[[0,0.5],[1,0.5]];portConstraint=eastwest;rotatable=0;whiteSpace=wrap;html=1;" parent="Cp1m9hOyoxUrhOeK2Ubn-2" vertex="1">
          <mxGeometry y="150" width="200" height="30" as="geometry" />
        </mxCell>
        <mxCell id="Cp1m9hOyoxUrhOeK2Ubn-9" value="codiceFiscale&lt;span style=&quot;white-space: pre;&quot;&gt;&#x9;&lt;span style=&quot;white-space: pre;&quot;&gt;&#x9;&lt;/span&gt;&lt;/span&gt;varchar" style="text;strokeColor=none;fillColor=none;align=left;verticalAlign=middle;spacingLeft=4;spacingRight=4;overflow=hidden;points=[[0,0.5],[1,0.5]];portConstraint=eastwest;rotatable=0;whiteSpace=wrap;html=1;" parent="Cp1m9hOyoxUrhOeK2Ubn-2" vertex="1">
          <mxGeometry y="180" width="200" height="30" as="geometry" />
        </mxCell>
        <mxCell id="Cp1m9hOyoxUrhOeK2Ubn-10" value="passwordHash&lt;span style=&quot;white-space: pre;&quot;&gt;&#x9;&lt;/span&gt;varchar" style="text;strokeColor=none;fillColor=none;align=left;verticalAlign=middle;spacingLeft=4;spacingRight=4;overflow=hidden;points=[[0,0.5],[1,0.5]];portConstraint=eastwest;rotatable=0;whiteSpace=wrap;html=1;" parent="Cp1m9hOyoxUrhOeK2Ubn-2" vertex="1">
          <mxGeometry y="210" width="200" height="30" as="geometry" />
        </mxCell>
        <mxCell id="Cp1m9hOyoxUrhOeK2Ubn-11" value="Posts" style="swimlane;fontStyle=0;childLayout=stackLayout;horizontal=1;startSize=30;horizontalStack=0;resizeParent=1;resizeParentMax=0;resizeLast=0;collapsible=1;marginBottom=0;whiteSpace=wrap;html=1;" parent="1" vertex="1">
          <mxGeometry x="360" y="270" width="160" height="210" as="geometry" />
        </mxCell>
        <mxCell id="Cp1m9hOyoxUrhOeK2Ubn-12" value="id&lt;span style=&quot;white-space: pre;&quot;&gt;&#x9;&lt;span style=&quot;white-space: pre;&quot;&gt;&#x9;&lt;/span&gt;&lt;span style=&quot;white-space: pre;&quot;&gt;&#x9;&lt;/span&gt;&lt;/span&gt;pk" style="text;strokeColor=none;fillColor=none;align=left;verticalAlign=middle;spacingLeft=4;spacingRight=4;overflow=hidden;points=[[0,0.5],[1,0.5]];portConstraint=eastwest;rotatable=0;whiteSpace=wrap;html=1;" parent="Cp1m9hOyoxUrhOeK2Ubn-11" vertex="1">
          <mxGeometry y="30" width="160" height="30" as="geometry" />
        </mxCell>
        <mxCell id="Cp1m9hOyoxUrhOeK2Ubn-13" value="idUtente&lt;span style=&quot;white-space: pre;&quot;&gt;&#x9;&lt;/span&gt;&lt;span style=&quot;white-space: pre;&quot;&gt;&#x9;&lt;/span&gt;fk" style="text;strokeColor=none;fillColor=none;align=left;verticalAlign=middle;spacingLeft=4;spacingRight=4;overflow=hidden;points=[[0,0.5],[1,0.5]];portConstraint=eastwest;rotatable=0;whiteSpace=wrap;html=1;" parent="Cp1m9hOyoxUrhOeK2Ubn-11" vertex="1">
          <mxGeometry y="60" width="160" height="30" as="geometry" />
        </mxCell>
        <mxCell id="Cp1m9hOyoxUrhOeK2Ubn-109" value="idPadre&lt;span style=&quot;white-space: pre;&quot;&gt;&#x9;&lt;/span&gt;&lt;span style=&quot;white-space: pre;&quot;&gt;&#x9;&lt;/span&gt;fk" style="text;strokeColor=none;fillColor=none;align=left;verticalAlign=middle;spacingLeft=4;spacingRight=4;overflow=hidden;points=[[0,0.5],[1,0.5]];portConstraint=eastwest;rotatable=0;whiteSpace=wrap;html=1;" parent="Cp1m9hOyoxUrhOeK2Ubn-11" vertex="1">
          <mxGeometry y="90" width="160" height="30" as="geometry" />
        </mxCell>
        <mxCell id="Cp1m9hOyoxUrhOeK2Ubn-14" value="contenuto&lt;span style=&quot;white-space: pre;&quot;&gt;&#x9;&lt;/span&gt;text" style="text;strokeColor=none;fillColor=none;align=left;verticalAlign=middle;spacingLeft=4;spacingRight=4;overflow=hidden;points=[[0,0.5],[1,0.5]];portConstraint=eastwest;rotatable=0;whiteSpace=wrap;html=1;" parent="Cp1m9hOyoxUrhOeK2Ubn-11" vertex="1">
          <mxGeometry y="120" width="160" height="30" as="geometry" />
        </mxCell>
        <mxCell id="Cp1m9hOyoxUrhOeK2Ubn-15" value="data&lt;span style=&quot;white-space: pre;&quot;&gt;&#x9;&lt;/span&gt;&lt;span style=&quot;white-space: pre;&quot;&gt;&#x9;&lt;/span&gt;&lt;span style=&quot;white-space: pre;&quot;&gt;&#x9;&lt;/span&gt;datetime" style="text;strokeColor=none;fillColor=none;align=left;verticalAlign=middle;spacingLeft=4;spacingRight=4;overflow=hidden;points=[[0,0.5],[1,0.5]];portConstraint=eastwest;rotatable=0;whiteSpace=wrap;html=1;" parent="Cp1m9hOyoxUrhOeK2Ubn-11" vertex="1">
          <mxGeometry y="150" width="160" height="30" as="geometry" />
        </mxCell>
        <mxCell id="Cp1m9hOyoxUrhOeK2Ubn-107" value="like&lt;span style=&quot;white-space: pre;&quot;&gt;&#x9;&lt;/span&gt;&lt;span style=&quot;white-space: pre;&quot;&gt;&#x9;&lt;/span&gt;&lt;span style=&quot;white-space: pre;&quot;&gt;&#x9;&lt;/span&gt;int" style="text;strokeColor=none;fillColor=none;align=left;verticalAlign=middle;spacingLeft=4;spacingRight=4;overflow=hidden;points=[[0,0.5],[1,0.5]];portConstraint=eastwest;rotatable=0;whiteSpace=wrap;html=1;" parent="Cp1m9hOyoxUrhOeK2Ubn-11" vertex="1">
          <mxGeometry y="180" width="160" height="30" as="geometry" />
        </mxCell>
        <mxCell id="Cp1m9hOyoxUrhOeK2Ubn-110" value="" style="endArrow=ERmany;startArrow=ERone;endFill=0;startFill=0;endSize=8;startSize=10;html=1;rounded=0;exitX=1;exitY=0.5;exitDx=0;exitDy=0;entryX=1;entryY=0.5;entryDx=0;entryDy=0;" parent="Cp1m9hOyoxUrhOeK2Ubn-11" source="Cp1m9hOyoxUrhOeK2Ubn-109" target="Cp1m9hOyoxUrhOeK2Ubn-12" edge="1">
          <mxGeometry width="160" relative="1" as="geometry">
            <mxPoint x="200" y="140" as="sourcePoint" />
            <mxPoint x="200" y="50" as="targetPoint" />
            <Array as="points">
              <mxPoint x="200" y="105" />
              <mxPoint x="200" y="45" />
            </Array>
          </mxGeometry>
        </mxCell>
        <mxCell id="Cp1m9hOyoxUrhOeK2Ubn-20" value="" style="endArrow=ERmany;startArrow=ERone;endFill=0;startFill=0;endSize=8;startSize=10;html=1;rounded=0;exitX=1;exitY=0.5;exitDx=0;exitDy=0;entryX=0;entryY=0.5;entryDx=0;entryDy=0;" parent="1" source="Cp1m9hOyoxUrhOeK2Ubn-4" target="Cp1m9hOyoxUrhOeK2Ubn-13" edge="1">
          <mxGeometry width="160" relative="1" as="geometry">
            <mxPoint x="230" y="180" as="sourcePoint" />
            <mxPoint x="350" y="180" as="targetPoint" />
            <Array as="points">
              <mxPoint x="300" y="165" />
              <mxPoint x="300" y="345" />
            </Array>
          </mxGeometry>
        </mxCell>
        <mxCell id="Cp1m9hOyoxUrhOeK2Ubn-42" value="Utente" style="swimlane;fontStyle=0;childLayout=stackLayout;horizontal=1;startSize=30;horizontalStack=0;resizeParent=1;resizeParentMax=0;resizeLast=0;collapsible=1;marginBottom=0;whiteSpace=wrap;html=1;" parent="1" vertex="1">
          <mxGeometry x="360" y="760" width="200" height="210" as="geometry" />
        </mxCell>
        <mxCell id="Cp1m9hOyoxUrhOeK2Ubn-44" value="Nominativo&amp;nbsp;&#x9;&lt;span style=&quot;white-space: pre;&quot;&gt;&#x9;&lt;span style=&quot;white-space: pre;&quot;&gt;&#x9;&lt;/span&gt;&lt;/span&gt;string" style="text;strokeColor=none;fillColor=none;align=left;verticalAlign=middle;spacingLeft=4;spacingRight=4;overflow=hidden;points=[[0,0.5],[1,0.5]];portConstraint=eastwest;rotatable=0;whiteSpace=wrap;html=1;" parent="Cp1m9hOyoxUrhOeK2Ubn-42" vertex="1">
          <mxGeometry y="30" width="200" height="30" as="geometry" />
        </mxCell>
        <mxCell id="Cp1m9hOyoxUrhOeK2Ubn-45" value="Email&lt;span style=&quot;white-space: pre;&quot;&gt;&#x9;&lt;span style=&quot;white-space: pre;&quot;&gt;&#x9;&lt;span style=&quot;white-space: pre;&quot;&gt;&#x9;&lt;/span&gt;&lt;/span&gt;&lt;/span&gt;string" style="text;strokeColor=none;fillColor=none;align=left;verticalAlign=middle;spacingLeft=4;spacingRight=4;overflow=hidden;points=[[0,0.5],[1,0.5]];portConstraint=eastwest;rotatable=0;whiteSpace=wrap;html=1;" parent="Cp1m9hOyoxUrhOeK2Ubn-42" vertex="1">
          <mxGeometry y="60" width="200" height="30" as="geometry" />
        </mxCell>
        <mxCell id="Cp1m9hOyoxUrhOeK2Ubn-46" value="Numero&lt;span style=&quot;white-space: pre;&quot;&gt;&#x9;&lt;span style=&quot;white-space: pre;&quot;&gt;&#x9;&lt;span style=&quot;white-space: pre;&quot;&gt;&#x9;&lt;/span&gt;&lt;/span&gt;&lt;/span&gt;int" style="text;strokeColor=none;fillColor=none;align=left;verticalAlign=middle;spacingLeft=4;spacingRight=4;overflow=hidden;points=[[0,0.5],[1,0.5]];portConstraint=eastwest;rotatable=0;whiteSpace=wrap;html=1;" parent="Cp1m9hOyoxUrhOeK2Ubn-42" vertex="1">
          <mxGeometry y="90" width="200" height="30" as="geometry" />
        </mxCell>
        <mxCell id="Cp1m9hOyoxUrhOeK2Ubn-47" value="Residenza&lt;span style=&quot;white-space: pre;&quot;&gt;&#x9;&lt;span style=&quot;white-space: pre;&quot;&gt;&#x9;&lt;/span&gt;&lt;/span&gt;string" style="text;strokeColor=none;fillColor=none;align=left;verticalAlign=middle;spacingLeft=4;spacingRight=4;overflow=hidden;points=[[0,0.5],[1,0.5]];portConstraint=eastwest;rotatable=0;whiteSpace=wrap;html=1;" parent="Cp1m9hOyoxUrhOeK2Ubn-42" vertex="1">
          <mxGeometry y="120" width="200" height="30" as="geometry" />
        </mxCell>
        <mxCell id="Cp1m9hOyoxUrhOeK2Ubn-48" value="CodiceFiscale&lt;span style=&quot;white-space: pre;&quot;&gt;&#x9;&lt;span style=&quot;white-space: pre;&quot;&gt;&#x9;&lt;/span&gt;&lt;/span&gt;string" style="text;strokeColor=none;fillColor=none;align=left;verticalAlign=middle;spacingLeft=4;spacingRight=4;overflow=hidden;points=[[0,0.5],[1,0.5]];portConstraint=eastwest;rotatable=0;whiteSpace=wrap;html=1;" parent="Cp1m9hOyoxUrhOeK2Ubn-42" vertex="1">
          <mxGeometry y="150" width="200" height="30" as="geometry" />
        </mxCell>
        <mxCell id="Cp1m9hOyoxUrhOeK2Ubn-49" value="PasswordHash&lt;span style=&quot;white-space: pre;&quot;&gt;&#x9;&lt;/span&gt;string" style="text;strokeColor=none;fillColor=none;align=left;verticalAlign=middle;spacingLeft=4;spacingRight=4;overflow=hidden;points=[[0,0.5],[1,0.5]];portConstraint=eastwest;rotatable=0;whiteSpace=wrap;html=1;" parent="Cp1m9hOyoxUrhOeK2Ubn-42" vertex="1">
          <mxGeometry y="180" width="200" height="30" as="geometry" />
        </mxCell>
        <mxCell id="Cp1m9hOyoxUrhOeK2Ubn-50" value="&lt;font style=&quot;font-size: 23px;&quot;&gt;DIAGRAMMA ER&lt;/font&gt;" style="html=1;whiteSpace=wrap;" parent="1" vertex="1">
          <mxGeometry x="40" y="40" width="340" height="40" as="geometry" />
        </mxCell>
        <mxCell id="Cp1m9hOyoxUrhOeK2Ubn-51" value="&lt;font style=&quot;font-size: 23px;&quot;&gt;DIAGRAMMA BACK-END&lt;/font&gt;" style="html=1;whiteSpace=wrap;" parent="1" vertex="1">
          <mxGeometry x="40" y="590" width="340" height="40" as="geometry" />
        </mxCell>
        <mxCell id="Cp1m9hOyoxUrhOeK2Ubn-60" value="Post" style="swimlane;fontStyle=0;childLayout=stackLayout;horizontal=1;startSize=30;horizontalStack=0;resizeParent=1;resizeParentMax=0;resizeLast=0;collapsible=1;marginBottom=0;whiteSpace=wrap;html=1;" parent="1" vertex="1">
          <mxGeometry x="640" y="980" width="160" height="180" as="geometry" />
        </mxCell>
        <mxCell id="Cp1m9hOyoxUrhOeK2Ubn-63" value="Contenuto&lt;span style=&quot;white-space: pre;&quot;&gt;&#x9;&lt;/span&gt;string" style="text;strokeColor=none;fillColor=none;align=left;verticalAlign=middle;spacingLeft=4;spacingRight=4;overflow=hidden;points=[[0,0.5],[1,0.5]];portConstraint=eastwest;rotatable=0;whiteSpace=wrap;html=1;" parent="Cp1m9hOyoxUrhOeK2Ubn-60" vertex="1">
          <mxGeometry y="30" width="160" height="30" as="geometry" />
        </mxCell>
        <mxCell id="Cp1m9hOyoxUrhOeK2Ubn-113" value="Like&lt;span style=&quot;white-space: pre;&quot;&gt;&#x9;&lt;/span&gt;&lt;span style=&quot;white-space: pre;&quot;&gt;&#x9;&lt;/span&gt;&lt;span style=&quot;white-space: pre;&quot;&gt;&#x9;&lt;/span&gt;int" style="text;strokeColor=none;fillColor=none;align=left;verticalAlign=middle;spacingLeft=4;spacingRight=4;overflow=hidden;points=[[0,0.5],[1,0.5]];portConstraint=eastwest;rotatable=0;whiteSpace=wrap;html=1;" parent="Cp1m9hOyoxUrhOeK2Ubn-60" vertex="1">
          <mxGeometry y="60" width="160" height="30" as="geometry" />
        </mxCell>
        <mxCell id="Cp1m9hOyoxUrhOeK2Ubn-64" value="Data&lt;span style=&quot;white-space: pre;&quot;&gt;&#x9;&lt;/span&gt;&lt;span style=&quot;white-space: pre;&quot;&gt;&#x9;&lt;/span&gt;DateTime" style="text;strokeColor=none;fillColor=none;align=left;verticalAlign=middle;spacingLeft=4;spacingRight=4;overflow=hidden;points=[[0,0.5],[1,0.5]];portConstraint=eastwest;rotatable=0;whiteSpace=wrap;html=1;" parent="Cp1m9hOyoxUrhOeK2Ubn-60" vertex="1">
          <mxGeometry y="90" width="160" height="30" as="geometry" />
        </mxCell>
        <mxCell id="Cp1m9hOyoxUrhOeK2Ubn-112" value="Padre&lt;span style=&quot;white-space: pre;&quot;&gt;&#x9;&lt;span style=&quot;white-space: pre;&quot;&gt;&#x9;&lt;/span&gt;P&lt;/span&gt;ost" style="text;strokeColor=none;fillColor=none;align=left;verticalAlign=middle;spacingLeft=4;spacingRight=4;overflow=hidden;points=[[0,0.5],[1,0.5]];portConstraint=eastwest;rotatable=0;whiteSpace=wrap;html=1;" parent="Cp1m9hOyoxUrhOeK2Ubn-60" vertex="1">
          <mxGeometry y="120" width="160" height="30" as="geometry" />
        </mxCell>
        <mxCell id="Cp1m9hOyoxUrhOeK2Ubn-73" value="Utente&lt;span style=&quot;white-space: pre;&quot;&gt;&#x9;&lt;/span&gt;&lt;span style=&quot;white-space: pre;&quot;&gt;&#x9;&lt;/span&gt;Utente" style="text;strokeColor=none;fillColor=none;align=left;verticalAlign=middle;spacingLeft=4;spacingRight=4;overflow=hidden;points=[[0,0.5],[1,0.5]];portConstraint=eastwest;rotatable=0;whiteSpace=wrap;html=1;" parent="Cp1m9hOyoxUrhOeK2Ubn-60" vertex="1">
          <mxGeometry y="150" width="160" height="30" as="geometry" />
        </mxCell>
        <mxCell id="Cp1m9hOyoxUrhOeK2Ubn-111" value="" style="endArrow=open;startArrow=diamondThin;endFill=0;startFill=0;endSize=8;startSize=10;html=1;rounded=0;exitX=1;exitY=0.5;exitDx=0;exitDy=0;entryX=1.005;entryY=0.083;entryDx=0;entryDy=0;entryPerimeter=0;" parent="Cp1m9hOyoxUrhOeK2Ubn-60" source="Cp1m9hOyoxUrhOeK2Ubn-112" target="Cp1m9hOyoxUrhOeK2Ubn-60" edge="1">
          <mxGeometry width="160" relative="1" as="geometry">
            <mxPoint x="260.0000000000002" y="14.940000000000055" as="sourcePoint" />
            <mxPoint x="260.96000000000004" y="165" as="targetPoint" />
            <Array as="points">
              <mxPoint x="200" y="135" />
              <mxPoint x="200" y="15" />
            </Array>
          </mxGeometry>
        </mxCell>
        <mxCell id="Cp1m9hOyoxUrhOeK2Ubn-72" value="" style="endArrow=open;startArrow=diamondThin;endFill=0;startFill=0;endSize=8;startSize=10;html=1;rounded=0;exitX=1;exitY=0.5;exitDx=0;exitDy=0;entryX=0;entryY=0.5;entryDx=0;entryDy=0;" parent="1" target="Cp1m9hOyoxUrhOeK2Ubn-73" edge="1">
          <mxGeometry width="160" relative="1" as="geometry">
            <mxPoint x="560" y="805" as="sourcePoint" />
            <mxPoint x="630" y="840" as="targetPoint" />
            <Array as="points">
              <mxPoint x="600" y="805" />
              <mxPoint x="600" y="1145" />
            </Array>
          </mxGeometry>
        </mxCell>
        <mxCell id="Cp1m9hOyoxUrhOeK2Ubn-77" value="Entity" style="swimlane;fontStyle=0;childLayout=stackLayout;horizontal=1;startSize=30;horizontalStack=0;resizeParent=1;resizeParentMax=0;resizeLast=0;collapsible=1;marginBottom=0;whiteSpace=wrap;html=1;" parent="1" vertex="1">
          <mxGeometry x="50" y="720" width="200" height="120" as="geometry" />
        </mxCell>
        <mxCell id="Cp1m9hOyoxUrhOeK2Ubn-78" value="Id:&lt;span style=&quot;white-space: pre;&quot;&gt;&#x9;&lt;/span&gt;&lt;span style=&quot;white-space: pre;&quot;&gt;&#x9;&lt;/span&gt;&lt;span style=&quot;white-space: pre;&quot;&gt;&#x9;&lt;/span&gt;&lt;span style=&quot;white-space: pre;&quot;&gt;&#x9;&lt;/span&gt;int" style="text;strokeColor=none;fillColor=none;align=left;verticalAlign=middle;spacingLeft=4;spacingRight=4;overflow=hidden;points=[[0,0.5],[1,0.5]];portConstraint=eastwest;rotatable=0;whiteSpace=wrap;html=1;" parent="Cp1m9hOyoxUrhOeK2Ubn-77" vertex="1">
          <mxGeometry y="30" width="200" height="30" as="geometry" />
        </mxCell>
        <mxCell id="Cp1m9hOyoxUrhOeK2Ubn-79" value="ToString():&lt;span style=&quot;white-space: pre;&quot;&gt;&#x9;&lt;/span&gt;&lt;span style=&quot;white-space: pre;&quot;&gt;&#x9;&lt;/span&gt;string" style="text;strokeColor=none;fillColor=none;align=left;verticalAlign=middle;spacingLeft=4;spacingRight=4;overflow=hidden;points=[[0,0.5],[1,0.5]];portConstraint=eastwest;rotatable=0;whiteSpace=wrap;html=1;" parent="Cp1m9hOyoxUrhOeK2Ubn-77" vertex="1">
          <mxGeometry y="60" width="200" height="30" as="geometry" />
        </mxCell>
        <mxCell id="Cp1m9hOyoxUrhOeK2Ubn-80" value="FromDictionary(Dictionary&amp;lt;string, string&amp;gt;):&lt;span style=&quot;white-space: pre;&quot;&gt;&#x9;&lt;/span&gt;&lt;span style=&quot;white-space: pre;&quot;&gt;&#x9;&lt;span style=&quot;white-space: pre;&quot;&gt;&#x9;&lt;/span&gt;&lt;/span&gt;void" style="text;strokeColor=none;fillColor=none;align=left;verticalAlign=middle;spacingLeft=4;spacingRight=4;overflow=hidden;points=[[0,0.5],[1,0.5]];portConstraint=eastwest;rotatable=0;whiteSpace=wrap;html=1;" parent="Cp1m9hOyoxUrhOeK2Ubn-77" vertex="1">
          <mxGeometry y="90" width="200" height="30" as="geometry" />
        </mxCell>
        <mxCell id="Cp1m9hOyoxUrhOeK2Ubn-85" value="" style="endArrow=open;startArrow=diamondThin;endFill=0;startFill=0;endSize=8;startSize=10;html=1;rounded=0;entryX=0.5;entryY=0;entryDx=0;entryDy=0;exitX=1.013;exitY=0.135;exitDx=0;exitDy=0;exitPerimeter=0;" parent="1" source="Cp1m9hOyoxUrhOeK2Ubn-77" target="Cp1m9hOyoxUrhOeK2Ubn-42" edge="1">
          <mxGeometry width="160" relative="1" as="geometry">
            <mxPoint x="300" y="740" as="sourcePoint" />
            <mxPoint x="570" y="740" as="targetPoint" />
            <Array as="points">
              <mxPoint x="460" y="736" />
            </Array>
          </mxGeometry>
        </mxCell>
        <mxCell id="Cp1m9hOyoxUrhOeK2Ubn-86" value="" style="endArrow=open;startArrow=diamondThin;endFill=0;startFill=0;endSize=8;startSize=10;html=1;rounded=0;exitX=0.484;exitY=0.981;exitDx=0;exitDy=0;exitPerimeter=0;" parent="1" source="Cp1m9hOyoxUrhOeK2Ubn-80" edge="1">
          <mxGeometry width="160" relative="1" as="geometry">
            <mxPoint x="160" y="710" as="sourcePoint" />
            <mxPoint x="720" y="1160" as="targetPoint" />
            <Array as="points">
              <mxPoint x="147" y="1200" />
              <mxPoint x="720" y="1200" />
            </Array>
          </mxGeometry>
        </mxCell>
        <mxCell id="Cp1m9hOyoxUrhOeK2Ubn-88" value="Followers" style="swimlane;fontStyle=0;childLayout=stackLayout;horizontal=1;startSize=30;horizontalStack=0;resizeParent=1;resizeParentMax=0;resizeLast=0;collapsible=1;marginBottom=0;whiteSpace=wrap;html=1;" parent="1" vertex="1">
          <mxGeometry x="80" y="400" width="160" height="90" as="geometry" />
        </mxCell>
        <mxCell id="Cp1m9hOyoxUrhOeK2Ubn-90" value="idUtente&lt;span style=&quot;white-space: pre;&quot;&gt;&#x9;&lt;/span&gt;&lt;span style=&quot;white-space: pre;&quot;&gt;&#x9;&lt;/span&gt;pk, fk" style="text;strokeColor=none;fillColor=none;align=left;verticalAlign=middle;spacingLeft=4;spacingRight=4;overflow=hidden;points=[[0,0.5],[1,0.5]];portConstraint=eastwest;rotatable=0;whiteSpace=wrap;html=1;" parent="Cp1m9hOyoxUrhOeK2Ubn-88" vertex="1">
          <mxGeometry y="30" width="160" height="30" as="geometry" />
        </mxCell>
        <mxCell id="Cp1m9hOyoxUrhOeK2Ubn-97" value="idFollower&lt;span style=&quot;white-space: pre;&quot;&gt;&#x9;&lt;/span&gt;pk, fk" style="text;strokeColor=none;fillColor=none;align=left;verticalAlign=middle;spacingLeft=4;spacingRight=4;overflow=hidden;points=[[0,0.5],[1,0.5]];portConstraint=eastwest;rotatable=0;whiteSpace=wrap;html=1;" parent="Cp1m9hOyoxUrhOeK2Ubn-88" vertex="1">
          <mxGeometry y="60" width="160" height="30" as="geometry" />
        </mxCell>
        <mxCell id="Cp1m9hOyoxUrhOeK2Ubn-98" value="" style="endArrow=ERmany;startArrow=ERone;endFill=0;startFill=0;endSize=8;startSize=10;html=1;rounded=0;exitX=1;exitY=0.5;exitDx=0;exitDy=0;entryX=1;entryY=0.5;entryDx=0;entryDy=0;" parent="1" source="Cp1m9hOyoxUrhOeK2Ubn-4" target="Cp1m9hOyoxUrhOeK2Ubn-90" edge="1">
          <mxGeometry width="160" relative="1" as="geometry">
            <mxPoint x="250" y="175" as="sourcePoint" />
            <mxPoint x="310" y="370" as="targetPoint" />
            <Array as="points">
              <mxPoint x="300" y="165" />
              <mxPoint x="300" y="445" />
            </Array>
          </mxGeometry>
        </mxCell>
        <mxCell id="Cp1m9hOyoxUrhOeK2Ubn-99" value="" style="endArrow=ERmany;startArrow=ERone;endFill=0;startFill=0;endSize=8;startSize=10;html=1;rounded=0;exitX=1;exitY=0.5;exitDx=0;exitDy=0;entryX=1;entryY=0.5;entryDx=0;entryDy=0;" parent="1" source="Cp1m9hOyoxUrhOeK2Ubn-4" target="Cp1m9hOyoxUrhOeK2Ubn-97" edge="1">
          <mxGeometry width="160" relative="1" as="geometry">
            <mxPoint x="250" y="175" as="sourcePoint" />
            <mxPoint x="250" y="455" as="targetPoint" />
            <Array as="points">
              <mxPoint x="300" y="165" />
              <mxPoint x="300" y="475" />
            </Array>
          </mxGeometry>
        </mxCell>
        <mxCell id="Cp1m9hOyoxUrhOeK2Ubn-100" value="Followers" style="swimlane;fontStyle=0;childLayout=stackLayout;horizontal=1;startSize=30;horizontalStack=0;resizeParent=1;resizeParentMax=0;resizeLast=0;collapsible=1;marginBottom=0;whiteSpace=wrap;html=1;" parent="1" vertex="1">
          <mxGeometry x="360" y="1000" width="160" height="90" as="geometry" />
        </mxCell>
        <mxCell id="Cp1m9hOyoxUrhOeK2Ubn-101" value="idUtente&lt;span style=&quot;white-space: pre;&quot;&gt;&#x9;&lt;/span&gt;&lt;span style=&quot;white-space: pre;&quot;&gt;&#x9;&lt;/span&gt;int" style="text;strokeColor=none;fillColor=none;align=left;verticalAlign=middle;spacingLeft=4;spacingRight=4;overflow=hidden;points=[[0,0.5],[1,0.5]];portConstraint=eastwest;rotatable=0;whiteSpace=wrap;html=1;" parent="Cp1m9hOyoxUrhOeK2Ubn-100" vertex="1">
          <mxGeometry y="30" width="160" height="30" as="geometry" />
        </mxCell>
        <mxCell id="Cp1m9hOyoxUrhOeK2Ubn-102" value="idFollower&lt;span style=&quot;white-space: pre;&quot;&gt;&#x9;&lt;/span&gt;int" style="text;strokeColor=none;fillColor=none;align=left;verticalAlign=middle;spacingLeft=4;spacingRight=4;overflow=hidden;points=[[0,0.5],[1,0.5]];portConstraint=eastwest;rotatable=0;whiteSpace=wrap;html=1;" parent="Cp1m9hOyoxUrhOeK2Ubn-100" vertex="1">
          <mxGeometry y="60" width="160" height="30" as="geometry" />
        </mxCell>
        <mxCell id="Cp1m9hOyoxUrhOeK2Ubn-104" value="" style="endArrow=open;startArrow=diamondThin;endFill=0;startFill=0;endSize=8;startSize=10;html=1;rounded=0;entryX=0;entryY=0.25;entryDx=0;entryDy=0;exitX=0;exitY=0.088;exitDx=0;exitDy=0;exitPerimeter=0;" parent="1" source="Cp1m9hOyoxUrhOeK2Ubn-42" target="Cp1m9hOyoxUrhOeK2Ubn-100" edge="1">
          <mxGeometry width="160" relative="1" as="geometry">
            <mxPoint x="370" y="770" as="sourcePoint" />
            <mxPoint x="370" y="1055" as="targetPoint" />
            <Array as="points">
              <mxPoint x="320" y="778" />
              <mxPoint x="320" y="1023" />
            </Array>
          </mxGeometry>
        </mxCell>
        <mxCell id="t4ewPHWCoJttO8DMBXhj-1" value="Likes" style="swimlane;fontStyle=0;childLayout=stackLayout;horizontal=1;startSize=30;horizontalStack=0;resizeParent=1;resizeParentMax=0;resizeLast=0;collapsible=1;marginBottom=0;whiteSpace=wrap;html=1;" vertex="1" parent="1">
          <mxGeometry x="360" y="120" width="160" height="90" as="geometry" />
        </mxCell>
        <mxCell id="t4ewPHWCoJttO8DMBXhj-2" value="idUtente&lt;span style=&quot;white-space: pre;&quot;&gt;&#x9;&lt;/span&gt;&lt;span style=&quot;white-space: pre;&quot;&gt;&#x9;&lt;/span&gt;pk, fk" style="text;strokeColor=none;fillColor=none;align=left;verticalAlign=middle;spacingLeft=4;spacingRight=4;overflow=hidden;points=[[0,0.5],[1,0.5]];portConstraint=eastwest;rotatable=0;whiteSpace=wrap;html=1;" vertex="1" parent="t4ewPHWCoJttO8DMBXhj-1">
          <mxGeometry y="30" width="160" height="30" as="geometry" />
        </mxCell>
        <mxCell id="t4ewPHWCoJttO8DMBXhj-3" value="idPost&lt;span style=&quot;white-space: pre;&quot;&gt;&#x9;&lt;/span&gt;&amp;nbsp;&amp;nbsp;&amp;nbsp;&amp;nbsp;&amp;nbsp;&amp;nbsp;&amp;nbsp; pk, fk" style="text;strokeColor=none;fillColor=none;align=left;verticalAlign=middle;spacingLeft=4;spacingRight=4;overflow=hidden;points=[[0,0.5],[1,0.5]];portConstraint=eastwest;rotatable=0;whiteSpace=wrap;html=1;" vertex="1" parent="t4ewPHWCoJttO8DMBXhj-1">
          <mxGeometry y="60" width="160" height="30" as="geometry" />
        </mxCell>
        <mxCell id="t4ewPHWCoJttO8DMBXhj-5" value="" style="endArrow=ERmany;startArrow=ERone;endFill=0;startFill=0;endSize=8;startSize=10;html=1;rounded=0;exitX=0.5;exitY=0;exitDx=0;exitDy=0;" edge="1" parent="1" source="Cp1m9hOyoxUrhOeK2Ubn-11">
          <mxGeometry width="160" relative="1" as="geometry">
            <mxPoint x="580" y="180" as="sourcePoint" />
            <mxPoint x="440" y="210" as="targetPoint" />
            <Array as="points" />
          </mxGeometry>
        </mxCell>
        <mxCell id="t4ewPHWCoJttO8DMBXhj-6" value="" style="endArrow=ERmany;startArrow=ERone;endFill=0;startFill=0;endSize=8;startSize=10;html=1;rounded=0;exitX=1;exitY=0.5;exitDx=0;exitDy=0;entryX=0;entryY=0.5;entryDx=0;entryDy=0;" edge="1" parent="1" source="Cp1m9hOyoxUrhOeK2Ubn-4" target="t4ewPHWCoJttO8DMBXhj-2">
          <mxGeometry width="160" relative="1" as="geometry">
            <mxPoint x="310" y="140" as="sourcePoint" />
            <mxPoint x="310" y="80" as="targetPoint" />
            <Array as="points" />
          </mxGeometry>
        </mxCell>
      </root>
    </mxGraphModel>
  </diagram>
</mxfile>
